<svg xmlns="http://www.w3.org/2000/svg" fill="none" viewBox="0 0 96 96" id="Chartjs--Streamline-Svg-Logos" height="96" width="96">
  <desc>
    Chartjs Streamline Icon: https://streamlinehq.com
  </desc>
  <path fill="#36a2eb" d="M86.3473 48.3267c-13.1412 0.258 -10.404 8.577 -19.6654 10.6808 -9.4082 2.1373 -10.8934 -22.9777 -20.2993 -22.9777 -9.407 0 -11.4909 24.3965 -23.2697 41.145l-0.336 0.4741 25.2536 14.5776 38.3168 -22.12V48.3267Z" stroke-width="1"></path>
  <path fill="#ffce56" d="M86.3468 47.5694c-4.3992 -5.6458 -7.3831 -12.1365 -13.8028 -12.1365 -11.3604 0 -8.3712 18.5326 -20.9267 18.5326 -12.5566 0 -13.8767 -19.9344 -28.1013 -1.1955 -4.5326 5.9707 -8.1809 12.6283 -11.0468 18.9281L48.03 92.2271l38.3168 -22.12V47.5694Z" stroke-width="1"></path>
  <path fill="#fe6184" d="M9.71191 55.2463C14.023 43.3077 15.8836 33.6387 24.1139 33.6387c12.5555 0 15.5441 35.2729 26.3077 31.6844 10.7618 -3.5867 9.5656 -22.718 26.3076 -22.718 3.1866 0 6.4402 1.9523 9.618 5.1101v22.3914L48.0304 92.2265 9.71191 70.1066V55.2463Z" opacity=".8" stroke-width="1"></path>
  <path fill="#e7e9ed" d="M48.0001 95 7.29102 71.5006V24.5L48.0001 1l40.709 23.5v47L48.0001 95ZM12.0739 68.7393l35.9262 20.7394 35.9262 -20.7394V27.2612L48.0001 6.52191 12.0739 27.2612v41.4781Z" stroke-width="1"></path>
</svg>